<?xml version="1.0" encoding="UTF-8" standalone="no"?>
<!-- Created with Inkscape (http://www.inkscape.org/) -->

<svg
   xmlns:dc="http://purl.org/dc/elements/1.1/"
   xmlns:cc="http://creativecommons.org/ns#"
   xmlns:rdf="http://www.w3.org/1999/02/22-rdf-syntax-ns#"
   xmlns:svg="http://www.w3.org/2000/svg"
   xmlns="http://www.w3.org/2000/svg"
   xmlns:sodipodi="http://sodipodi.sourceforge.net/DTD/sodipodi-0.dtd"
   xmlns:inkscape="http://www.inkscape.org/namespaces/inkscape"
   width="18px"
   height="18px"
   viewBox="0 0 18 18"
   version="1.1"
   id="SVGRoot"
   inkscape:version="0.92.3 (2405546, 2018-03-11)"
   sodipodi:docname="hydro.svg">
  <sodipodi:namedview
     id="base"
     pagecolor="#ffffff"
     bordercolor="#666666"
     borderopacity="1.0"
     inkscape:pageopacity="0.0"
     inkscape:pageshadow="2"
     inkscape:zoom="5.028315"
     inkscape:cx="-27.958006"
     inkscape:cy="15.699891"
     inkscape:document-units="px"
     inkscape:current-layer="layer1"
     showgrid="true"
     inkscape:window-width="1920"
     inkscape:window-height="1017"
     inkscape:window-x="-8"
     inkscape:window-y="-8"
     inkscape:window-maximized="1"
     inkscape:grid-bbox="true">
    <inkscape:grid
       type="xygrid"
       id="grid4146" />
  </sodipodi:namedview>
  <defs
     id="defs4130" />
  <metadata
     id="metadata4133">
    <rdf:RDF>
      <cc:Work
         rdf:about="">
        <dc:format>image/svg+xml</dc:format>
        <dc:type
           rdf:resource="http://purl.org/dc/dcmitype/StillImage" />
        <dc:title />
      </cc:Work>
    </rdf:RDF>
  </metadata>
  <g
     id="layer1"
     inkscape:groupmode="layer"
     inkscape:label="Layer 1">
    <rect
       style="fill:#000000"
       id="rect4150"
       width="18"
       height="18"
       x="0"
       y="0" />
    <rect
       style="fill:#ffffff"
       id="rect4154"
       width="16"
       height="16"
       x="1"
       y="1" />
    <g
       transform="matrix(0.13982785,0,0,0.13982785,2.0085376,2.6034352)"
       id="g108">
      <path
         inkscape:connector-curvature="0"
         id="path84"
         d="m 100,66.552 c -1.736,0.694 -3.473,1.389 -5.557,1.389 -4.166,0 -6.943,-2.776 -11.11,-2.776 -4.166,0 -6.944,2.776 -11.11,2.776 -4.166,0 -6.945,-2.776 -11.111,-2.776 -4.166,0 -6.943,2.776 -11.11,2.776 -4.167,0 -6.944,-2.776 -11.111,-2.776 -4.167,0 -6.944,2.776 -11.111,2.776 -4.167,0 -6.944,-2.776 -11.111,-2.776 -4.167,0 -6.944,2.776 -11.111,2.776 -2.083,0 -3.819,-0.69 -5.556,-1.386 v 8.333 c 1.736,0.694 3.472,1.386 5.556,1.386 4.167,0 6.944,-2.776 11.111,-2.776 4.167,0 6.945,2.776 11.111,2.776 4.166,0 6.944,-2.776 11.111,-2.776 4.167,0 6.945,2.776 11.111,2.776 4.167,0 6.944,-2.776 11.11,-2.776 4.166,0 6.945,2.776 11.111,2.776 4.166,0 6.944,-2.776 11.11,-2.776 4.167,0 6.944,2.776 11.11,2.776 2.084,0 3.82,-0.693 5.557,-1.389 z" />
      <path
         inkscape:connector-curvature="0"
         id="path86"
         d="m 100,49.885 c -1.736,0.694 -3.473,1.389 -5.557,1.389 -4.166,0 -6.943,-2.776 -11.11,-2.776 -4.166,0 -6.944,2.776 -11.11,2.776 -4.166,0 -6.945,-2.776 -11.111,-2.776 -4.166,0 -6.943,2.776 -11.11,2.776 -4.167,0 -6.944,-2.776 -11.111,-2.776 -4.167,0 -6.944,2.776 -11.111,2.776 -4.167,0 -6.944,-2.776 -11.111,-2.776 -4.167,0 -6.944,2.776 -11.111,2.776 -2.083,0 -3.819,-0.69 -5.556,-1.386 v 8.333 c 1.736,0.694 3.472,1.387 5.556,1.387 4.167,0 6.944,-2.777 11.111,-2.777 4.167,0 6.945,2.777 11.111,2.777 4.166,0 6.944,-2.777 11.111,-2.777 4.167,0 6.945,2.777 11.111,2.777 4.167,0 6.944,-2.777 11.11,-2.777 4.166,0 6.945,2.777 11.111,2.777 4.166,0 6.944,-2.777 11.11,-2.777 4.167,0 6.944,2.777 11.11,2.777 2.084,0 3.82,-0.693 5.557,-1.389 z" />
      <path
         inkscape:connector-curvature="0"
         id="path88"
         d="m 100,33.272 c -1.736,0.695 -3.473,1.389 -5.557,1.389 -4.166,0 -6.943,-2.775 -11.11,-2.775 -4.166,0 -6.944,2.775 -11.11,2.775 -4.166,0 -6.945,-2.775 -11.111,-2.775 -4.166,0 -6.943,2.775 -11.11,2.775 -4.167,0 -6.944,-2.775 -11.111,-2.775 -4.167,0 -6.944,2.775 -11.111,2.775 -4.167,0 -6.944,-2.775 -11.111,-2.775 -4.167,0 -6.945,2.774 -11.112,2.774 -2.083,0 -3.819,-0.689 -5.556,-1.385 v 8.332 c 1.736,0.695 3.472,1.387 5.556,1.387 4.167,0 6.944,-2.777 11.111,-2.777 4.167,0 6.945,2.777 11.111,2.777 4.166,0 6.944,-2.777 11.111,-2.777 4.167,0 6.945,2.777 11.111,2.777 4.167,0 6.944,-2.777 11.11,-2.777 4.166,0 6.945,2.777 11.111,2.777 4.166,0 6.944,-2.777 11.11,-2.777 4.167,0 6.944,2.777 11.11,2.777 2.084,0 3.82,-0.693 5.557,-1.389 v -8.333 z" />
      <path
         inkscape:connector-curvature="0"
         id="path90"
         d="m 100,16.605 c -1.736,0.694 -3.473,1.389 -5.557,1.389 -4.166,0 -6.943,-2.776 -11.11,-2.776 -4.166,0 -6.944,2.776 -11.11,2.776 -4.166,0 -6.945,-2.776 -11.111,-2.776 -4.166,0 -6.943,2.776 -11.11,2.776 -4.167,0 -6.944,-2.776 -11.111,-2.776 -4.167,0 -6.944,2.776 -11.111,2.776 -4.167,0 -6.944,-2.776 -11.111,-2.776 -4.167,0 -6.944,2.776 -11.111,2.776 -2.083,0 -3.819,-0.69 -5.556,-1.386 v 8.333 c 1.736,0.694 3.472,1.387 5.556,1.387 4.167,0 6.944,-2.778 11.111,-2.778 4.167,0 6.945,2.778 11.111,2.778 4.166,0 6.944,-2.778 11.111,-2.778 4.167,0 6.945,2.778 11.111,2.778 4.167,0 6.944,-2.778 11.11,-2.778 4.166,0 6.945,2.778 11.111,2.778 4.166,0 6.944,-2.778 11.11,-2.778 4.167,0 6.944,2.778 11.11,2.778 2.084,0 3.82,-0.693 5.557,-1.389 z" />
    </g>
  </g>
</svg>
