<?xml version="1.0" encoding="UTF-8" standalone="no"?>
<!-- Created with Inkscape (http://www.inkscape.org/) -->

<svg
   xmlns:dc="http://purl.org/dc/elements/1.1/"
   xmlns:cc="http://creativecommons.org/ns#"
   xmlns:rdf="http://www.w3.org/1999/02/22-rdf-syntax-ns#"
   xmlns:svg="http://www.w3.org/2000/svg"
   xmlns="http://www.w3.org/2000/svg"
   xmlns:sodipodi="http://sodipodi.sourceforge.net/DTD/sodipodi-0.dtd"
   xmlns:inkscape="http://www.inkscape.org/namespaces/inkscape"
   width="18px"
   height="18px"
   viewBox="0 0 18 18"
   version="1.1"
   id="SVGRoot"
   inkscape:version="0.92.3 (2405546, 2018-03-11)"
   sodipodi:docname="hydro_gen.svg">
  <sodipodi:namedview
     id="base"
     pagecolor="#ffffff"
     bordercolor="#666666"
     borderopacity="1.0"
     inkscape:pageopacity="0.0"
     inkscape:pageshadow="2"
     inkscape:zoom="20.11326"
     inkscape:cx="-0.43243271"
     inkscape:cy="9.0120868"
     inkscape:document-units="px"
     inkscape:current-layer="layer1"
     showgrid="true"
     inkscape:window-width="1920"
     inkscape:window-height="1017"
     inkscape:window-x="-8"
     inkscape:window-y="-8"
     inkscape:window-maximized="1"
     inkscape:grid-bbox="true">
    <inkscape:grid
       type="xygrid"
       id="grid4146" />
  </sodipodi:namedview>
  <defs
     id="defs4130" />
  <metadata
     id="metadata4133">
    <rdf:RDF>
      <cc:Work
         rdf:about="">
        <dc:format>image/svg+xml</dc:format>
        <dc:type
           rdf:resource="http://purl.org/dc/dcmitype/StillImage" />
        <dc:title></dc:title>
      </cc:Work>
    </rdf:RDF>
  </metadata>
  <g
     id="layer1"
     inkscape:groupmode="layer"
     inkscape:label="Layer 1">
    <path
       inkscape:connector-curvature="0"
       d="m 15.646422,15.090432 c -2.017386,0 -3.596888,-2.140583 -3.596888,-4.872346 V 2.503539 c 0,-0.224128 -0.140747,-0.4060289 -0.312773,-0.4060289 H 8.6090336 c -0.1726502,0 -0.3127726,0.1819009 -0.3127726,0.4060289 0,0.6715715 -0.4209917,1.2180864 -0.9383181,1.2180864 -0.5173262,0 -0.9383183,-0.5465149 -0.9383183,-1.2180864 0,-0.224128 -0.1401222,-0.4060289 -0.3127727,-0.4060289 -0.1726506,0 -0.3127728,0.1819009 -0.3127728,0.4060289 0,0.6715715 -0.4209921,1.2180864 -0.9383182,1.2180864 -0.5173263,0 -0.9383183,-0.5465149 -0.9383183,-1.2180864 0,-0.224128 -0.1401222,-0.4060289 -0.3127727,-0.4060289 -0.1726507,0 -0.3127729,0.1819009 -0.3127729,0.4060289 0,0.6715715 -0.420992,1.2180864 -0.9383182,1.2180864 -0.1726506,0 -0.3127728,0.1819009 -0.3127728,0.4060287 0,0.224128 0.1401222,0.4060288 0.3127728,0.4060288 0.5110706,0 0.9652167,-0.3199507 1.2510911,-0.8128697 0.2858742,0.4937311 0.7400203,0.8128697 1.251091,0.8128697 0.5110706,0 0.9652168,-0.3199507 1.251091,-0.8128697 0.2858743,0.4937311 0.7400203,0.8128697 1.251091,0.8128697 0.3534337,0 0.6762154,-0.1583512 0.9383181,-0.4165855 v 1.634672 c 0,0.671572 -0.4209917,1.2180865 -0.9383181,1.2180865 -0.5173262,0 -0.9383183,-0.5465145 -0.9383183,-1.2180865 0,-0.2241279 -0.1401222,-0.4060288 -0.3127727,-0.4060288 -0.1726506,0 -0.3127728,0.1819009 -0.3127728,0.4060288 0,0.671572 -0.4209921,1.2180865 -0.9383182,1.2180865 -0.5173263,0 -0.9383183,-0.5465145 -0.9383183,-1.2180865 0,-0.2241279 -0.1401222,-0.4060288 -0.3127727,-0.4060288 -0.1726507,0 -0.3127729,0.1819009 -0.3127729,0.4060288 0,0.671572 -0.420992,1.2180865 -0.9383182,1.2180865 -0.1726506,0 -0.3127728,0.1819011 -0.3127728,0.4060285 0,0.2241272 0.1401222,0.4060298 0.3127728,0.4060298 0.5110706,0 0.9652167,-0.3199519 1.2510911,-0.8128707 0.2858742,0.4937309 0.7400203,0.8128707 1.251091,0.8128707 0.5110706,0 0.9652168,-0.3199519 1.251091,-0.8128707 0.2858743,0.4937309 0.7400203,0.8128707 1.251091,0.8128707 0.3534337,0 0.6762154,-0.1583521 0.9383181,-0.4165864 v 1.6346729 c 0,0.6717748 -0.4209917,1.2180853 -0.9383181,1.2180853 -0.5173262,0 -0.9383183,-0.5463105 -0.9383183,-1.2180853 0,-0.2241287 -0.1401222,-0.4060295 -0.3127727,-0.4060295 -0.1726506,0 -0.3127728,0.1819008 -0.3127728,0.4060295 0,0.6717748 -0.4209921,1.2180853 -0.9383182,1.2180853 -0.5173263,0 -0.9383183,-0.5463105 -0.9383183,-1.2180853 0,-0.2241287 -0.1401222,-0.4060295 -0.3127727,-0.4060295 -0.1726507,0 -0.3127729,0.1819008 -0.3127729,0.4060295 0,0.6717748 -0.420992,1.2180853 -0.9383182,1.2180853 -0.1726506,0 -0.3127728,0.182713 -0.3127728,0.40603 0,0.223315 0.1401222,0.406029 0.3127728,0.406029 0.5110706,0 0.9652167,-0.320763 1.2510911,-0.81287 0.2858742,0.49373 0.7400203,0.81287 1.251091,0.81287 0.5110706,0 0.9652168,-0.320763 1.251091,-0.81287 0.2858743,0.49373 0.7400203,0.81287 1.251091,0.81287 0.3534337,0 0.6762154,-0.158352 0.9383181,-0.417601 v 1.229658 H 2.040806 v 4.060288 h 13.605616 c 0.172024,0 0.312772,-0.182713 0.312772,-0.406029 0,-0.223316 -0.140748,-0.406029 -0.312772,-0.406029 z"
       id="path4224"
       style="stroke-width:0.17818162" />
  </g>
</svg>
