<?xml version="1.0" encoding="UTF-8" standalone="no"?>
<!-- Created with Inkscape (http://www.inkscape.org/) -->

<svg
   xmlns:dc="http://purl.org/dc/elements/1.1/"
   xmlns:cc="http://creativecommons.org/ns#"
   xmlns:rdf="http://www.w3.org/1999/02/22-rdf-syntax-ns#"
   xmlns:svg="http://www.w3.org/2000/svg"
   xmlns="http://www.w3.org/2000/svg"
   xmlns:sodipodi="http://sodipodi.sourceforge.net/DTD/sodipodi-0.dtd"
   xmlns:inkscape="http://www.inkscape.org/namespaces/inkscape"
   width="18px"
   height="18px"
   viewBox="0 0 18 18"
   version="1.1"
   id="SVGRoot"
   inkscape:version="0.92.3 (2405546, 2018-03-11)"
   sodipodi:docname="solar_gen.svg">
  <sodipodi:namedview
     id="base"
     pagecolor="#ffffff"
     bordercolor="#666666"
     borderopacity="1.0"
     inkscape:pageopacity="0.0"
     inkscape:pageshadow="2"
     inkscape:zoom="20.11326"
     inkscape:cx="6.3791897"
     inkscape:cy="12.433835"
     inkscape:document-units="px"
     inkscape:current-layer="layer1"
     showgrid="true"
     inkscape:window-width="1920"
     inkscape:window-height="1017"
     inkscape:window-x="-8"
     inkscape:window-y="-8"
     inkscape:window-maximized="1"
     inkscape:grid-bbox="true">
    <inkscape:grid
       type="xygrid"
       id="grid4146" />
  </sodipodi:namedview>
  <defs
     id="defs4130" />
  <metadata
     id="metadata4133">
    <rdf:RDF>
      <cc:Work
         rdf:about="">
        <dc:format>image/svg+xml</dc:format>
        <dc:type
           rdf:resource="http://purl.org/dc/dcmitype/StillImage" />
        <dc:title></dc:title>
      </cc:Work>
    </rdf:RDF>
  </metadata>
  <g
     id="layer1"
     inkscape:groupmode="layer"
     inkscape:label="Layer 1">
    <g
       transform="matrix(0.28725939,0,0,0.28725939,1.8185153,1.8186589)"
       id="g4400">
      <path
         style="clip-rule:evenodd;fill-rule:evenodd"
         inkscape:connector-curvature="0"
         d="m 9.383,9.928 h 31.235 l 5.779,22.267 H 3.603 Z m 1.562,1.114 -1.208,4.654 H 18.4 v -4.654 z m 9.674,0 v 4.654 h 8.763 v -4.654 z m 10.982,0 v 4.654 h 8.663 l -1.209,-4.654 z m 9.239,6.874 h -9.239 v 5.546 H 42.28 Z m -11.458,5.546 v -5.546 h -8.763 v 5.546 z m -10.982,0 V 17.916 H 9.16 l -1.439,5.546 z m 0,2.219 H 7.145 L 5.743,31.08 H 18.4 Z m 2.219,0 v 5.399 h 8.763 v -5.399 z m 10.982,0 v 5.399 h 12.657 l -1.402,-5.399 z m 3.571,10.647 H 14.828 l -0.563,3.744 H 7.34 v 2.794 H 42.66 V 40.072 H 35.735 Z M 7.23,7.133 0,34.989 H 50 L 42.77,7.133 Z"
         id="path4398" />
    </g>
  </g>
</svg>
