<?xml version="1.0" encoding="UTF-8" standalone="no"?>
<!-- Created with Inkscape (http://www.inkscape.org/) -->

<svg
   xmlns:dc="http://purl.org/dc/elements/1.1/"
   xmlns:cc="http://creativecommons.org/ns#"
   xmlns:rdf="http://www.w3.org/1999/02/22-rdf-syntax-ns#"
   xmlns:svg="http://www.w3.org/2000/svg"
   xmlns="http://www.w3.org/2000/svg"
   xmlns:sodipodi="http://sodipodi.sourceforge.net/DTD/sodipodi-0.dtd"
   xmlns:inkscape="http://www.inkscape.org/namespaces/inkscape"
   width="18px"
   height="18px"
   viewBox="0 0 18 18"
   version="1.1"
   id="SVGRoot"
   inkscape:version="0.92.3 (2405546, 2018-03-11)"
   sodipodi:docname="wind_gen.svg">
  <sodipodi:namedview
     id="base"
     pagecolor="#ffffff"
     bordercolor="#666666"
     borderopacity="1.0"
     inkscape:pageopacity="0.0"
     inkscape:pageshadow="2"
     inkscape:zoom="40.226519"
     inkscape:cx="7.5271555"
     inkscape:cy="9.564646"
     inkscape:document-units="px"
     inkscape:current-layer="layer1"
     showgrid="true"
     inkscape:window-width="1920"
     inkscape:window-height="1017"
     inkscape:window-x="-8"
     inkscape:window-y="-8"
     inkscape:window-maximized="1"
     inkscape:grid-bbox="true">
    <inkscape:grid
       type="xygrid"
       id="grid4146" />
  </sodipodi:namedview>
  <defs
     id="defs4130" />
  <metadata
     id="metadata4133">
    <rdf:RDF>
      <cc:Work
         rdf:about="">
        <dc:format>image/svg+xml</dc:format>
        <dc:type
           rdf:resource="http://purl.org/dc/dcmitype/StillImage" />
        <dc:title></dc:title>
      </cc:Work>
    </rdf:RDF>
  </metadata>
  <g
     id="layer1"
     inkscape:groupmode="layer"
     inkscape:label="Layer 1">
    <g
       transform="matrix(0.27072288,0,0,0.27072288,2.231928,2.231928)"
       id="g4090">
      <path
         style="clip-rule:evenodd;fill-rule:evenodd"
         inkscape:connector-curvature="0"
         d="m 26.623,20.223 c 0,0.909 -0.737,1.645 -1.645,1.645 -0.908,0 -1.645,-0.737 -1.645,-1.645 0,-0.908 0.737,-1.646 1.645,-1.646 0.908,10e-4 1.645,0.737 1.645,1.646 M 22.066,23.635 19.586,50 H 30.368 L 27.89,23.635 c 0.208,-0.18 0.396,-0.37 0.57,-0.583 l 2.083,5.638 12.113,2.079 1.805,-4.961 -14.999,-5.459 C 29.49,18.376 28.321,16.632 26.443,15.983 L 31.026,12.099 28.836,0 h -5.278 v 15.967 c -2.137,0.713 -3.411,2.913 -2.983,5.11 l -5.662,-2.03 -9.374,7.939 2.639,4.572 13.823,-7.981 z"
         id="path4088" />
    </g>
  </g>
</svg>
